{"title":"NOSFERATU.1922.BR.(TintFix).720p.x264.AC3.[FrOnkY]","uid":10277911,"size":7366809026,"categoryP":"video","categoryS":"hd___movies","magnet":"?xt=urn:btih:57993108c086d0d9b47e9744b0ef674ea67a99b6&amp;dn=NOSFERATU.1922.BR.%28TintFix%29.720p.x264.AC3.%5BFrOnkY%5D&amp;tr=udp%3A%2F%2Ftracker.openbittorrent.com%3A80&amp;tr=udp%3A%2F%2Fopen.demonii.com%3A1337&amp;tr=udp%3A%2F%2Ftracker.coppersurfer.tk%3A6969&amp;tr=udp%3A%2F%2Fexodus.desync.com%3A6969","seeders":0,"leechers":1,"uploader":"HDmEntEs","files":-1,"time":1401665796,"description":"NOSfixRATU\n\n\nNosferatu.1922.BR.TintFix.720p.x264.AC3.[FrOnkY].mkv\n\nFormat                                   : Matroska\nFormat version                           : Version 4 / Version 2\nFile size                                : 6.86 GiB\nDuration                                 : 1h 35mn\nOverall bit rate                         : 10.3 Mbps\nWriting application                      : mkvmerge v6.4.1 ('Omega Point') built on Sep 16 2013 22:05:10\nWriting library                          : libebml v1.3.0 + libmatroska v1.4.1\nAttachment                               : Yes\n\nVideo\nID                                       : 1\nFormat                                   : AVC\nFormat/Info                              : Advanced Video Codec\nFormat profile                           : &lt;a class=&quot;__cf_email__&quot; href=&quot;/cdn-cgi/l/email-protection&quot; data-cfemail=&quot;2b63424c436b671f051a&quot;&gt;[email&amp;#160;protected]&lt;/a&gt;&lt;script cf-hash='f9e31' type=&quot;text/javascript&quot;&gt;\n/* &lt;![CDATA[ */!function(){try{var t=&quot;currentScript&quot;in document?document.currentScript:function(){for(var t=document.getElementsByTagName(&quot;script&quot;),e=t.length;e--;)if(t[e].getAttribute(&quot;cf-hash&quot;))return t[e]}();if(t&amp;&amp;t.previousSibling){var e,r,n,i,c=t.previousSibling,a=c.getAttribute(&quot;data-cfemail&quot;);if(a){for(e=&quot;&quot;,r=parseInt(a.substr(0,2),16),n=2;a.length-n;n+=2)i=parseInt(a.substr(n,2),16)^r,e+=String.fromCharCode(i);e=document.createTextNode(e),c.parentNode.replaceChild(e,c)}}}catch(u){}}();/* ]]&gt; */&lt;/script&gt;\nFormat settings, CABAC                   : Yes\nFormat settings, ReFrames                : 12 frames\nCodec ID                                 : V_MPEG4/ISO/AVC\nDuration                                 : 1h 35mn\nBit rate                                 : 9 999 Kbps\nWidth                                    : 960 pixels\nHeight                                   : 720 pixels\nDisplay aspect ratio                     : 4:3\nFrame rate mode                          : Constant\nFrame rate                               : 23.976 fps\nColor space                              : YUV\nChroma subsampling                       : 4:2:0\nBit depth                                : 8 bits\nScan type                                : Progressive\nBits/(Pixel*Frame)                       : 0.603\nStream size                              : 6.51 GiB (95%)\nWriting library                          : x264 core 133 r2334 a3ac64b\nEncoding settings                        : cabac=1 / ref=12 / deblock=1:-2:-2 / analyse=0x3:0x133 / me=umh / subme=10 / psy=1 / psy_rd=1.00:0.25 / mixed_ref=1 / me_range=24 / chroma_me=1 / trellis=2 / 8x8dct=1 / cqm=0 / deadzone=6,6 / fast_pskip=1 / chroma_qp_offset=-4 / threads=6 / lookahead_threads=1 / sliced_threads=0 / nr=0 / decimate=0 / interlaced=0 / bluray_compat=0 / constrained_intra=0 / bframes=8 / b_pyramid=2 / b_adapt=2 / b_bias=0 / direct=3 / weightb=1 / open_gop=0 / weightp=2 / keyint=250 / keyint_min=23 / scenecut=40 / intra_refresh=0 / rc_lookahead=60 / rc=2pass / mbtree=1 / bitrate=9999 / ratetol=1.0 / qcomp=0.80 / qpmin=0 / qpmax=69 / qpstep=4 / cplxblur=20.0 / qblur=0.5 / ip_ratio=1.10 / aq=1:0.50\nLanguage                                 : German\nDefault                                  : Yes\nForced                                   : No\n\nAudio\nID                                       : 2\nFormat                                   : AC-3\nFormat/Info                              : Audio Coding 3\nMode extension                           : CM (complete main)\nFormat settings, Endianness              : Big\nCodec ID                                 : A_AC3\nDuration                                 : 1h 35mn\nBit rate mode                            : Constant\nBit rate                                 : 320 Kbps\nChannel(s)                               : 2 channels\nChannel positions                        : Front: L R\nSampling rate                            : 48.0 KHz\nBit depth                                : 16 bits\nStream size                              : 218 MiB (3%)\nLanguage                                 : German\nDefault                                  : Yes\nForced                                   : No\n\nText #1\nID                                       : 3\nFormat                                   : UTF-8\nCodec ID                                 : S_TEXT/UTF8\nCodec ID/Info                            : UTF-8 Plain Text\nLanguage                                 : Spanish\nDefault                                  : Yes\nForced                                   : No\n\nText #2\nID                                       : 4\nFormat                                   : UTF-8\nCodec ID                                 : S_TEXT/UTF8\nCodec ID/Info                            : UTF-8 Plain Text\nLanguage                                 : English\nDefault                                  : No\nForced                                   : No\n\nMenu\n00:00:00.000                             : en:Introduction\n00:03:31.544                             : en:Act 1: Wisborg\n00:10:22.663                             : en:Hutter's Journey\n00:13:47.284                             : en:The Inn\n00:18:47.543                             : en:Beyond the Bridge\n00:26:18.243                             : en:Act 2: Orlok's Castle\n00:32:51.469                             : en:Deeds\n00:39:20.274                             : en:Dawn\n00:43:15.676                             : en:Act 3: Earth-Filled Coffins\n00:46:17.775                             : en:Mysteries of Nature\n00:50:35.365                             : en:Ellen\n00:54:05.200                             : en:Ship of Death\n01:02:08.725                             : en:Act 4: The Master is Coming\n01:10:40.486                             : en:Plague\n01:16:30.210                             : en:Act 5: Ellen Reads\n01:23:07.232                             : en:Knock, The Scapegoat\n01:26:31.102                             : en:A Maiden Without Sin\n01:30:39.434                             : en:Morning Light\n\n\nFIX\n &lt;a href=&quot;\nhttp://box.jisko.net/i/af33218d.jpg&quot; rel=&quot;nofollow&quot; target=&quot;_NEW&quot;&gt;\nhttp://box.jisko.net/i/af33218d.jpg&lt;/a&gt; &lt;a href=&quot;\nhttp://box.jisko.net/i/afcdc50c.jpg&quot; rel=&quot;nofollow&quot; target=&quot;_NEW&quot;&gt;\nhttp://box.jisko.net/i/afcdc50c.jpg&lt;/a&gt;\n &lt;a href=&quot;\nhttp://box.jisko.net/i/56359f7d.jpg&quot; rel=&quot;nofollow&quot; target=&quot;_NEW&quot;&gt;\nhttp://box.jisko.net/i/56359f7d.jpg&lt;/a&gt; &lt;a href=&quot;\nhttp://box.jisko.net/i/35721317.jpg&quot; rel=&quot;nofollow&quot; target=&quot;_NEW&quot;&gt;\nhttp://box.jisko.net/i/35721317.jpg&lt;/a&gt;\n\n\nSCREENS\n &lt;a href=&quot;\nhttp://box.jisko.net/i/650d5632.png&quot; rel=&quot;nofollow&quot; target=&quot;_NEW&quot;&gt;\nhttp://box.jisko.net/i/650d5632.png&lt;/a&gt; &lt;a href=&quot;\nhttp://box.jisko.net/i/55d7c4b8.png&quot; rel=&quot;nofollow&quot; target=&quot;_NEW&quot;&gt;\nhttp://box.jisko.net/i/55d7c4b8.png&lt;/a&gt;\n &lt;a href=&quot;\nhttp://box.jisko.net/i/dff340f7.png&quot; rel=&quot;nofollow&quot; target=&quot;_NEW&quot;&gt;\nhttp://box.jisko.net/i/dff340f7.png&lt;/a&gt;\n &lt;a href=&quot;\nhttp://box.jisko.net/i/b4d95aed.png&quot; rel=&quot;nofollow&quot; target=&quot;_NEW&quot;&gt;\nhttp://box.jisko.net/i/b4d95aed.png&lt;/a&gt;\n","torrent":{"xt":"urn:btih:57993108c086d0d9b47e9744b0ef674ea67a99b6","amp;dn":"NOSFERATU.1922.BR.%28TintFix%29.720p.x264.AC3.%5BFrOnkY%5D","amp;tr":["udp%3A%2F%2Ftracker.openbittorrent.com%3A80","udp%3A%2F%2Fopen.demonii.com%3A1337","udp%3A%2F%2Ftracker.coppersurfer.tk%3A6969","udp%3A%2F%2Fexodus.desync.com%3A6969"],"infoHash":"57993108c086d0d9b47e9744b0ef674ea67a99b6","infoHashBuffer":{"type":"Buffer","data":[87,153,49,8,192,134,208,217,180,126,151,68,176,239,103,78,166,122,153,182]},"announce":[],"urlList":[]}}